<?xml version="1.0" encoding="UTF-8"?>
<svg xmlns="http://www.w3.org/2000/svg" xmlns:xlink="http://www.w3.org/1999/xlink" width="100px" height="100px" viewBox="0 0 100 100" version="1.1">
<g id="surface1">
<path style=" stroke:none;fill-rule:nonzero;fill:rgb(48.235294%,12.54902%,52.156863%);fill-opacity:1;" d="M 29.199219 36.816406 C 30.734375 39.765625 35.101562 48.132812 38.898438 55.417969 L 45.816406 68.667969 L 54.167969 68.667969 L 61.082031 55.417969 C 64.898438 48.132812 69.285156 39.734375 70.851562 36.75 L 73.683594 31.332031 L 70.816406 31.332031 L 62.484375 47.300781 C 57.917969 56.082031 54.101562 63.214844 54.035156 63.148438 C 53.964844 63.066406 50.214844 55.933594 45.699219 47.285156 L 37.5 31.550781 L 31.949219 31.515625 L 26.398438 31.484375 Z M 44.316406 50 L 52.601562 65.832031 L 49.882812 65.933594 C 48.398438 65.984375 47.132812 65.917969 47.082031 65.765625 C 46.984375 65.449219 33.867188 40.25 31.984375 36.714844 C 31.25 35.382812 30.667969 34.214844 30.667969 34.132812 C 30.667969 34.050781 31.882812 34.015625 33.367188 34.066406 L 36.050781 34.167969 Z M 44.316406 50 "/>
<path style=" stroke:none;fill-rule:nonzero;fill:rgb(48.235294%,12.54902%,52.156863%);fill-opacity:1;" d="M 40.332031 31.582031 C 40.332031 31.734375 42.300781 35.601562 44.699219 40.183594 C 47.101562 44.75 49.882812 50.132812 50.882812 52.132812 L 52.714844 55.75 L 57.882812 45.800781 C 60.714844 40.316406 63.566406 34.882812 64.183594 33.734375 C 64.816406 32.582031 65.332031 31.601562 65.332031 31.535156 C 65.332031 31.484375 62.867188 31.417969 59.851562 31.398438 L 54.351562 31.367188 L 51.464844 36.898438 L 48.566406 42.417969 L 45.832031 36.964844 L 43.082031 31.5 L 41.699219 31.398438 C 40.949219 31.332031 40.332031 31.417969 40.332031 31.582031 Z M 59.5 37.316406 C 58.515625 39.132812 56.632812 42.734375 55.300781 45.316406 C 53.984375 47.898438 52.800781 50 52.683594 50 C 52.566406 50 51.917969 48.882812 51.25 47.515625 L 50.015625 45.015625 L 52.917969 39.515625 L 55.816406 34 L 61.265625 34 Z M 59.5 37.316406 "/>
</g>
</svg>
